# xmcd
#
# Track frame offsets:
# 150
# 13120
# 26512
# 38035
# 48705
# 59450
# 75177
# 84137
# 97172
# 111112
# 121430
# 136957
# 150482
# 161792
# 176677
# 187990
# 201915
# 213484
#
# Disc length: 3043 seconds
#
#
# Revision: 0
# Processed by: cddbd v1.5.1PL2 Copyright (c) Steve Scherf et al.
# Submitted via: FreeRIP 2.943 
#
DISCID=ed0be112
DTITLE=Pirapó&Cambará - As Melhores de:
DYEAR=2005
DGENRE=Sertanejo
TTITLE0=São Paulo Bom
TTITLE1=Desenconte da Chiquinha
TTITLE2=Catucando a Jurubéba
TTITLE3=Tira a mão dai
TTITLE4=Moda da Japonesa
TTITLE5=Comparação
TTITLE6=To aqui pra te Ajudar
TTITLE7=Minhas Loucas Namoradas
TTITLE8=A Enchente
TTITLE9=Pau de Macarrão
TTITLE10=Não quero nem Saber
TTITLE11=Garota Tico-Tico
TTITLE12=Pó Patapataio
TTITLE13=Percorrendo São Paulo
TTITLE14=Florisbela
TTITLE15=Para Pedro
TTITLE16=Contando Piadas
TTITLE17=Catarina
EXTD=NelDVD
EXTT0=
EXTT1=
EXTT2=
EXTT3=
EXTT4=
EXTT5=
EXTT6=
EXTT7=
EXTT8=
EXTT9=
EXTT10=
EXTT11=
EXTT12=
EXTT13=
EXTT14=
EXTT15=
EXTT16=
EXTT17=
PLAYORDER=
